<?xml version="1.0" encoding="utf-8"?><svg xml:space="preserve" viewBox="0 0 100 100" y="0px" x="0px" xmlns:xlink="http://www.w3.org/1999/xlink" xmlns="http://www.w3.org/2000/svg" id="圖層_1" version="1.1" width="200px" height="200px" style="width:100%;height:100%;background-size:initial;background-repeat-y:initial;background-repeat-x:initial;background-position-y:initial;background-position-x:initial;background-origin:initial;background-color:initial;background-clip:initial;background-attachment:initial;animation-play-state:paused" ><g class="ldl-scale" style="transform-origin:50% 50%;transform:rotate(0deg) scale(0.8, 0.8);animation-play-state:paused" ><g style="animation-play-state:paused" ><rect height="17.68" width="5.34" fill="#8C6239" y="14.07" x="64.27" style="fill:rgb(140, 98, 57);animation-play-state:paused" ></rect>
<circle r="7.5" cy="12.09" cx="66.83" fill="#8C6239" style="fill:rgb(140, 98, 57);animation-play-state:paused" ></circle>
<circle r="0.06" cy="11.82" cx="66.94" fill="#FCEE21" style="fill:rgb(252, 238, 33);animation-play-state:paused" ></circle>
<circle r="0.06" cy="10.25" cx="65.88" fill="#FCEE21" style="fill:rgb(252, 238, 33);animation-play-state:paused" ></circle></g>
<g style="animation-play-state:paused" ><rect height="17.68" width="5.34" fill="#8C6239" y="14.07" x="30.38" style="fill:rgb(140, 98, 57);animation-play-state:paused" ></rect>
<circle r="7.5" cy="12.09" cx="33.05" fill="#8C6239" style="fill:rgb(140, 98, 57);animation-play-state:paused" ></circle>
<circle r="0.06" cy="11.82" cx="33.05" fill="#FCEE21" style="fill:rgb(252, 238, 33);animation-play-state:paused" ></circle></g>
<g style="animation-play-state:paused" ><path d="M27.41,34.33c-1.57-1.61-3.48-3.15-5.66-4.5C16.62,26.65,10.17,27,6.21,27.66 C4.15,28,2.85,30.09,3.46,32.09c1.17,3.84,3.71,9.78,8.84,12.96c2.18,1.35,4.41,2.38,6.55,3.07L27.41,34.33z" fill="#FFE219" style="fill:rgb(255, 226, 25);animation-play-state:paused" ></path>
<path d="M26,36.6c-1.05-1.08-2.33-2.11-3.79-3.02c-2.79-1.73-6.17-1.9-8.77-1.67c-2.32,0.21-3.79,2.58-2.95,4.75 c0.94,2.43,2.59,5.38,5.38,7.12c1.46,0.91,2.95,1.6,4.39,2.06L26,36.6z" fill="#D78A3B" style="fill:rgb(215, 138, 59);animation-play-state:paused" ></path></g>
<g style="animation-play-state:paused" ><path d="M72.59,34.33c1.57-1.61,3.48-3.15,5.66-4.5c5.13-3.18,11.58-2.83,15.54-2.17c2.06,0.34,3.36,2.44,2.75,4.43 c-1.17,3.84-3.71,9.78-8.84,12.96c-2.18,1.35-4.41,2.38-6.55,3.07L72.59,34.33z" fill="#FFE219" style="fill:rgb(255, 226, 25);animation-play-state:paused" ></path>
<path d="M74,36.6c1.05-1.08,2.33-2.11,3.79-3.02c2.79-1.73,6.17-1.9,8.77-1.67c2.32,0.21,3.79,2.58,2.95,4.75 c-0.94,2.43-2.59,5.38-5.38,7.12c-1.46,0.91-2.95,1.6-4.39,2.06L74,36.6z" fill="#D78A3B" style="fill:rgb(215, 138, 59);animation-play-state:paused" ></path></g>
<g style="animation-play-state:paused" ><path d="M34.08,93.17h31.75c8.35,0,15.12-7.43,15.12-16.59V66.14c-8.62-7.98-18.84-12.79-31-12.79 s-22.38,4.82-31,12.79v10.45C18.96,85.74,25.73,93.17,34.08,93.17z" fill="#D7B03B" style="fill:rgb(215, 176, 59);animation-play-state:paused" ></path>
<path d="M81.04,66.78V26.36c0-1.93-1.56-3.5-3.5-3.5c-8.79-0.02-17.58-0.03-26.36-0.03 c-9.55,0-19.09,0.01-28.64,0.03c-1.93,0-3.49,1.57-3.49,3.5v40.42c8.62-8.15,18.84-13.08,31-13.08S72.42,58.63,81.04,66.78z" fill="#FFE219" style="fill:rgb(255, 226, 25);animation-play-state:paused" ></path>
<path d="M50,31.83c4.69,0,8.49-3.8,8.49-8.49c0-0.17-0.02-0.34-0.03-0.51c-2.43,0-4.86-0.01-7.28-0.01 c-3.21,0-6.43,0.01-9.65,0.01c-0.01,0.17-0.03,0.33-0.03,0.5C41.51,28.03,45.31,31.83,50,31.83z" fill="#8C6239" style="fill:rgb(140, 98, 57);animation-play-state:paused" ></path>
<path d="M73.69,49.85c0,4.3,3.2,7.85,7.35,8.4V41.44C76.89,42,73.69,45.54,73.69,49.85z" fill="#8C6239" style="fill:rgb(140, 98, 57);animation-play-state:paused" ></path>
<path d="M26.31,49.85c0-4.27-3.16-7.8-7.26-8.39v16.78C23.15,57.64,26.31,54.12,26.31,49.85z" fill="#8C6239" style="fill:rgb(140, 98, 57);animation-play-state:paused" ></path></g>
<g style="animation-play-state:paused" ><circle r="4.65" cy="72.92" cx="40.35" style="animation-play-state:paused" ></circle>
<circle r="4.65" cy="73.27" cx="59.18" style="animation-play-state:paused" ></circle></g>
<g style="animation-play-state:paused" ><ellipse ry="6.87" rx="4.63" cy="44.12" cx="64.63" style="animation-play-state:paused" ></ellipse>
<ellipse ry="6.87" rx="4.63" cy="44.12" cx="34.91" style="animation-play-state:paused" ></ellipse></g>
<metadata xmlns:d="https://loading.io/stock/" style="animation-play-state:paused" ><d:name style="animation-play-state:paused" >animal</d:name>


<d:tags style="animation-play-state:paused" >animal,giraffe,mammal,tall,zoo</d:tags>


<d:license style="animation-play-state:paused" >by</d:license>


<d:slug style="animation-play-state:paused" >j9zl6k</d:slug></metadata></g><!-- generated by https://loading.io/ --></svg>