<?xml version="1.0" encoding="utf-8"?><svg xml:space="preserve" viewBox="0 0 100 100" y="0" x="0" xmlns="http://www.w3.org/2000/svg" id="圖層_1" version="1.1" width="200px" height="200px" xmlns:xlink="http://www.w3.org/1999/xlink" style="width:100%;height:100%;background-size:initial;background-repeat-y:initial;background-repeat-x:initial;background-position-y:initial;background-position-x:initial;background-origin:initial;background-color:initial;background-clip:initial;background-attachment:initial;animation-play-state:paused" ><g class="ldl-scale" style="transform-origin:50% 50%;transform:rotate(0deg) scale(0.8, 0.8);animation-play-state:paused" ><path fill="#abbd81" d="M83.64 15.066c-.038 0-.074-.006-.112-.006H16.472c-1.938 0-3.728.64-5.194 1.708-2.284 1.663-3.778 4.373-3.778 7.39v34.944c0 4.955 4.017 8.846 8.972 8.846h43.756c2.117 8.5 7.991 14.439 16.216 16.992V67.949h7.083c4.955 0 8.972-3.891 8.972-8.846V24.158c.001-4.917-3.956-9.03-8.859-9.092z" style="fill:rgb(248, 248, 248);animation-play-state:paused" ></path>
<g style="animation-play-state:paused" ><circle fill="#f5e6c8" r="5.5" cy="41.5" cx="28" style="fill:rgb(115, 101, 73);animation-play-state:paused" ></circle>
<circle fill="#fcedce" r="5.5" cy="41.5" cx="50" style="fill:rgb(160, 132, 73);animation-play-state:paused" ></circle>
<circle fill="#fff2d9" r="5.5" cy="41.5" cx="72" style="fill:rgb(188, 173, 146);animation-play-state:paused" ></circle></g>
<metadata xmlns:d="https://loading.io/stock/" style="animation-play-state:paused" ><d:name style="animation-play-state:paused" >talk</d:name>
<d:tags style="animation-play-state:paused" >sending,typing,say,speak,word,talk,conversation</d:tags>
<d:license style="animation-play-state:paused" >pro</d:license>
<d:slug style="animation-play-state:paused" >cyh05h</d:slug></metadata></g><!-- generated by https://loading.io/ --></svg>