<?xml version="1.0" encoding="utf-8"?><svg xml:space="preserve" viewBox="0 0 100 100" y="0" x="0" xmlns="http://www.w3.org/2000/svg" id="Layer_1" version="1.1" width="200px" height="200px" xmlns:xlink="http://www.w3.org/1999/xlink" style="width:100%;height:100%;background-size:initial;background-repeat-y:initial;background-repeat-x:initial;background-position-y:initial;background-position-x:initial;background-origin:initial;background-color:initial;background-clip:initial;background-attachment:initial;animation-play-state:paused" ><g class="ldl-scale" style="transform-origin:50% 50%;transform:rotate(0deg) scale(0.8, 0.8);animation-play-state:paused" ><path stroke-miterlimit="10" stroke-width="3.5" stroke="#333" fill="#e0e0e0" d="M78.129 62.934H50.612v-16.92c0-5.853 4.745-10.598 10.598-10.598h6.321c5.853 0 10.598 4.745 10.598 10.598v16.92z" style="stroke:rgba(0, 0, 0, 0.51);fill:rgb(255, 255, 255);animation-play-state:paused" ></path>
<circle stroke-miterlimit="10" stroke-width="3.5" stroke="#333" fill="#f4e6c8" r="10.632" cy="28.537" cx="64.371" style="stroke:rgba(0, 0, 0, 0.51);fill:rgb(255, 255, 255);animation-play-state:paused" ></circle>
<path stroke-miterlimit="10" stroke-width="3.5" stroke="#333" fill="#e0e0e0" d="M49.388 62.934H21.871v-16.92c0-5.853 4.745-10.598 10.598-10.598h6.321c5.853 0 10.598 4.745 10.598 10.598v16.92z" style="stroke:rgba(0, 0, 0, 0.51);fill:rgb(255, 255, 255);animation-play-state:paused" ></path>
<circle stroke-miterlimit="10" stroke-width="3.5" stroke="#333" fill="#f4e6c8" r="10.632" cy="28.537" cx="35.629" style="stroke:rgba(0, 0, 0, 0.51);fill:rgb(255, 255, 255);animation-play-state:paused" ></circle>
<path stroke-miterlimit="10" stroke-width="3.5" stroke="#333" fill="#e0e0e0" d="M63.759 82.095H36.241v-16.92c0-5.853 4.745-10.598 10.598-10.598h6.321c5.853 0 10.598 4.745 10.598 10.598v16.92z" style="stroke:rgba(0, 0, 0, 0.51);fill:rgb(255, 255, 255);animation-play-state:paused" ></path>
<circle stroke-miterlimit="10" stroke-width="3.5" stroke="#333" fill="#f4e6c8" r="10.632" cy="47.698" cx="50" style="stroke:rgba(0, 0, 0, 0.51);fill:rgb(255, 255, 255);animation-play-state:paused" ></circle>
<path stroke-miterlimit="10" stroke-width="3.5" stroke="#333" fill="#e0e0e0" d="M35.017 82.095H7.5v-16.92c0-5.853 4.745-10.598 10.598-10.598h6.321c5.853 0 10.598 4.745 10.598 10.598v16.92z" style="stroke:rgba(0, 0, 0, 0.51);fill:rgb(255, 255, 255);animation-play-state:paused" ></path>
<circle stroke-miterlimit="10" stroke-width="3.5" stroke="#333" fill="#f4e6c8" r="10.632" cy="47.698" cx="21.259" style="stroke:rgba(0, 0, 0, 0.51);fill:rgb(255, 255, 255);animation-play-state:paused" ></circle>
<path stroke-miterlimit="10" stroke-width="3.5" stroke="#333" fill="#e0e0e0" d="M92.5 82.095H64.983v-16.92c0-5.853 4.745-10.598 10.598-10.598h6.321c5.853 0 10.598 4.745 10.598 10.598v16.92z" style="stroke:rgba(0, 0, 0, 0.51);fill:rgb(255, 255, 255);animation-play-state:paused" ></path>
<circle stroke-miterlimit="10" stroke-width="3.5" stroke="#333" fill="#f4e6c8" r="10.632" cy="47.698" cx="78.741" style="stroke:rgba(0, 0, 0, 0.51);fill:rgb(255, 255, 255);animation-play-state:paused" ></circle>
<metadata xmlns:d="https://loading.io/stock/" style="animation-play-state:paused" ><d:name style="animation-play-state:paused" >crowdsourcing</d:name>


<d:tags style="animation-play-state:paused" >crowdsourcing,collaboration,cowork,crowd,participate,grassroot,together,people,citizen</d:tags>


<d:license style="animation-play-state:paused" >by</d:license>


<d:slug style="animation-play-state:paused" >ha2r7j</d:slug></metadata></g><!-- generated by https://loading.io/ --></svg>